<svg width="1440" height="800" viewBox="0 0 1440 800" fill="none" xmlns="http://www.w3.org/2000/svg">
<g clip-path="url(#clip0_63_3)">
<rect width="1440" height="800" fill="white"/>
<rect width="1440" height="800" fill="url(#paint0_linear_63_3)"/>
<path d="M641.724 429.128C641.34 429.128 641.124 428.876 641.076 428.372C641.82 423.788 642.456 420.392 642.984 418.184C643.536 416 644.256 413.468 645.144 410.588C642.96 412.556 640.104 413.54 636.576 413.54C634.848 413.54 633.372 413.036 632.148 412.028C630.948 411.02 630.036 409.712 629.412 408.104C628.788 406.496 628.476 404.78 628.476 402.956C628.476 399.5 629.184 395.852 630.6 392.012C632.04 388.172 633.864 384.968 636.072 382.4C638.304 379.832 640.524 378.548 642.732 378.548C644.724 378.548 646.32 379.148 647.52 380.348C648.744 381.524 649.536 383.168 649.896 385.28C649.8 386 649.608 386.36 649.32 386.36C649.08 386.36 648.78 386.096 648.42 385.568C648.084 385.04 647.748 384.392 647.412 383.624C646.476 381.368 644.916 380.24 642.732 380.24C640.572 380.24 638.52 381.476 636.576 383.948C634.632 386.396 633.072 389.372 631.896 392.876C630.72 396.356 630.132 399.464 630.132 402.2C630.132 405.056 630.66 407.396 631.716 409.22C632.772 411.02 634.476 411.92 636.828 411.92C640.98 411.92 643.812 410.768 645.324 408.464C645.708 407.888 645.972 407.348 646.116 406.844C646.26 406.34 646.332 405.812 646.332 405.26C646.212 404.924 645.636 404.228 644.604 403.172C643.572 402.116 642.612 401.276 641.724 400.652C640.188 400.964 638.436 401.252 636.468 401.516C635.988 401.468 635.748 401.252 635.748 400.868C635.748 400.556 635.892 400.28 636.18 400.04C637.74 398.912 639.096 398.348 640.248 398.348C640.944 398.348 641.616 398.528 642.264 398.888C645.192 398.24 648.456 397.34 652.056 396.188C652.632 396.188 652.92 396.392 652.92 396.8C652.92 396.944 652.872 397.124 652.776 397.34C649.68 402.452 647.352 407.96 645.792 413.864C645.288 415.736 644.892 417.356 644.604 418.724C644.316 420.116 643.944 421.952 643.488 424.232L642.732 428.12C642.708 428.384 642.576 428.612 642.336 428.804C642.12 429.02 641.916 429.128 641.724 429.128ZM647.556 404.036C647.94 403.196 648.444 402.14 649.068 400.868C649.716 399.596 650.16 398.756 650.4 398.348C648.24 399.068 646.104 399.68 643.992 400.184C644.544 400.712 645.18 401.372 645.9 402.164C646.62 402.956 647.172 403.58 647.556 404.036ZM658.072 413.288C657.208 413.288 656.548 413.06 656.092 412.604C655.66 412.148 655.444 411.548 655.444 410.804C655.444 410.156 655.48 409.568 655.552 409.04C655.624 408.488 655.756 407.636 655.948 406.484C656.332 404.252 656.824 401.708 657.424 398.852L658.36 394.316C660.424 384.452 661.528 379.28 661.672 378.8C661.792 378.416 662.056 378.224 662.464 378.224C662.968 378.224 663.22 378.5 663.22 379.052L663.076 379.988C662.956 380.756 662.824 381.476 662.68 382.148C662.536 382.796 662.272 384.056 661.888 385.928C661.24 388.952 660.412 392.84 659.404 397.592C658.42 402.344 657.796 405.512 657.532 407.096C657.22 408.824 657.064 409.904 657.064 410.336C657.064 410.696 657.172 411.02 657.388 411.308C657.604 411.596 657.868 411.74 658.18 411.74C658.516 411.74 658.828 411.68 659.116 411.56C659.428 411.416 659.632 411.32 659.728 411.272L660.34 410.948C660.532 410.852 660.652 410.804 660.7 410.804C661.228 410.804 661.492 411.068 661.492 411.596C661.492 412.124 661.156 412.544 660.484 412.856C659.812 413.144 659.008 413.288 658.072 413.288ZM667.999 413.324C666.751 413.324 665.815 412.832 665.191 411.848C664.591 410.864 664.291 409.688 664.291 408.32C664.291 406.136 664.651 404.024 665.371 401.984C666.115 399.92 667.123 398.216 668.395 396.872C669.619 395.504 670.999 394.82 672.535 394.82C674.743 394.82 675.847 396.5 675.847 399.86C675.847 401.54 675.571 403.256 675.019 405.008C674.467 406.76 673.747 408.32 672.859 409.688C671.995 411.056 671.095 412.04 670.159 412.64C669.439 413.096 668.719 413.324 667.999 413.324ZM668.287 411.704C669.031 411.704 669.859 411.056 670.771 409.76C671.707 408.464 672.487 406.856 673.111 404.936C673.759 403.016 674.083 401.384 674.083 400.04C674.083 398.648 673.999 397.784 673.831 397.448C673.687 397.088 673.507 396.836 673.291 396.692C673.075 396.548 672.739 396.476 672.283 396.476C671.779 396.476 671.251 396.668 670.699 397.052C669.595 397.748 668.635 398.948 667.819 400.652C666.547 403.196 665.911 405.668 665.911 408.068C665.911 409.7 666.379 410.828 667.315 411.452C667.651 411.62 667.975 411.704 668.287 411.704ZM682.862 413.36C681.806 413.36 680.99 412.892 680.414 411.956C679.862 411.02 679.586 409.856 679.586 408.464C679.586 407.432 679.646 406.424 679.766 405.44C679.886 404.432 680.066 403.244 680.306 401.876L680.45 400.94C680.81 398.684 681.11 396.932 681.35 395.684C681.398 395.372 681.446 395.096 681.494 394.856C681.542 394.616 681.578 394.4 681.602 394.208C681.818 393.08 682.01 392.168 682.178 391.472C682.298 390.752 682.61 389.18 683.114 386.756C683.498 385.052 683.99 382.472 684.59 379.016C684.758 378.632 684.998 378.44 685.31 378.44C685.934 378.44 686.246 378.704 686.246 379.232L686.174 379.484C685.598 383.372 684.926 387.044 684.158 390.5C683.294 394.364 682.658 397.316 682.25 399.356C683.066 397.892 683.846 396.788 684.59 396.044C685.334 395.276 686.15 394.892 687.038 394.892C687.926 394.892 688.634 395.24 689.162 395.936C689.714 396.608 689.99 397.388 689.99 398.276C689.99 400.124 689.702 402.236 689.126 404.612C688.574 406.964 687.842 408.884 686.93 410.372C685.73 412.364 684.374 413.36 682.862 413.36ZM682.862 411.524C683.726 411.524 684.59 410.804 685.454 409.364C686.606 407.516 687.422 405.128 687.902 402.2C688.022 401.288 688.082 400.424 688.082 399.608C688.082 398.624 687.986 397.892 687.794 397.412C687.626 396.908 687.302 396.656 686.822 396.656C686.318 396.656 685.67 397.088 684.878 397.952C684.11 398.792 683.414 399.848 682.79 401.12C682.166 402.368 681.794 403.544 681.674 404.648C681.506 406.256 681.422 407.528 681.422 408.464C681.422 410.504 681.902 411.524 682.862 411.524ZM703.835 413.072C703.283 413.072 702.767 412.784 702.287 412.208C701.831 411.608 701.603 410.972 701.603 410.3C701.603 408.812 701.999 406.292 702.791 402.74C702.191 404.036 701.411 405.368 700.451 406.736C699.515 408.08 698.591 409.268 697.679 410.3C696.767 411.332 696.095 412.004 695.663 412.316C695.063 412.772 694.403 413 693.683 413C692.315 413 691.631 412.136 691.631 410.408C691.631 408.728 692.267 406.64 693.539 404.144C694.811 401.624 696.323 399.44 698.075 397.592C699.827 395.768 701.243 394.856 702.323 394.856C703.427 394.856 704.051 395.336 704.195 396.296C704.267 396.584 704.303 396.896 704.303 397.232C704.423 397.16 704.555 397.124 704.699 397.124C705.251 397.124 705.527 397.388 705.527 397.916V398.06L705.095 399.644C704.759 400.844 704.411 402.62 704.051 404.972C703.691 407.324 703.511 409.28 703.511 410.84L703.871 411.056C704.447 411.416 704.735 411.776 704.735 412.136C704.735 412.376 704.651 412.592 704.483 412.784C704.315 412.976 704.099 413.072 703.835 413.072ZM693.971 411.128C694.235 411.128 694.451 411.044 694.619 410.876C697.067 408.788 699.239 405.896 701.135 402.2C701.951 400.664 702.455 399.656 702.647 399.176C702.863 398.696 702.971 398.228 702.971 397.772C702.971 397.532 702.911 397.316 702.791 397.124C702.671 396.932 702.515 396.836 702.323 396.836C702.083 396.836 701.771 396.944 701.387 397.16C700.427 397.664 699.287 398.732 697.967 400.364C696.671 401.996 695.603 403.724 694.763 405.548C693.875 407.396 693.431 409.04 693.431 410.48C693.431 410.912 693.611 411.128 693.971 411.128ZM711.475 413.288C710.611 413.288 709.951 413.06 709.495 412.604C709.063 412.148 708.847 411.548 708.847 410.804C708.847 410.156 708.883 409.568 708.955 409.04C709.027 408.488 709.159 407.636 709.351 406.484C709.735 404.252 710.227 401.708 710.827 398.852L711.763 394.316C713.827 384.452 714.931 379.28 715.075 378.8C715.195 378.416 715.459 378.224 715.867 378.224C716.371 378.224 716.623 378.5 716.623 379.052L716.479 379.988C716.359 380.756 716.227 381.476 716.083 382.148C715.939 382.796 715.675 384.056 715.291 385.928C714.643 388.952 713.815 392.84 712.807 397.592C711.823 402.344 711.199 405.512 710.935 407.096C710.623 408.824 710.467 409.904 710.467 410.336C710.467 410.696 710.575 411.02 710.791 411.308C711.007 411.596 711.271 411.74 711.583 411.74C711.919 411.74 712.231 411.68 712.519 411.56C712.831 411.416 713.035 411.32 713.131 411.272L713.743 410.948C713.935 410.852 714.055 410.804 714.103 410.804C714.631 410.804 714.895 411.068 714.895 411.596C714.895 412.124 714.559 412.544 713.887 412.856C713.215 413.144 712.411 413.288 711.475 413.288ZM728.953 414.98C728.473 414.98 728.233 414.704 728.233 414.152C728.233 413.984 728.257 413.684 728.305 413.252C727.897 413.156 727.561 413.096 727.297 413.072C726.481 412.928 725.881 412.772 725.497 412.604C725.113 412.436 724.921 412.124 724.921 411.668C724.921 411.548 724.993 411.416 725.137 411.272C725.257 411.104 725.377 411.02 725.497 411.02C725.809 411.02 726.157 411.116 726.541 411.308C726.853 411.452 727.141 411.56 727.405 411.632C727.669 411.704 728.041 411.74 728.521 411.74C731.257 398.42 733.861 388.088 736.333 380.744C735.541 381.008 734.821 381.308 734.173 381.644C733.549 381.956 733.189 382.136 733.093 382.184C732.469 382.52 732.097 382.688 731.977 382.688C731.545 382.688 731.329 382.472 731.329 382.04C731.329 381.704 731.485 381.428 731.797 381.212C733.573 380.108 735.313 379.328 737.017 378.872C737.209 378.56 737.461 378.404 737.773 378.404C737.965 378.404 738.097 378.464 738.169 378.584C739.441 378.32 740.593 378.188 741.625 378.188C744.625 378.188 746.929 379.208 748.537 381.248C750.169 383.288 750.985 386.336 750.985 390.392C750.985 396.704 749.653 401.672 746.989 405.296C744.349 408.92 740.917 411.332 736.693 412.532C734.773 413.084 732.541 413.36 729.997 413.36C729.949 413.912 729.841 414.32 729.673 414.584C729.505 414.848 729.265 414.98 728.953 414.98ZM730.285 411.812C734.557 411.812 738.109 410.852 740.941 408.932C743.797 407.012 745.897 404.468 747.241 401.3C748.609 398.132 749.293 394.64 749.293 390.824C749.293 387.104 748.561 384.344 747.097 382.544C745.633 380.72 743.677 379.808 741.229 379.808C740.293 379.808 739.225 379.964 738.025 380.276C736.057 386.468 734.137 393.836 732.265 402.38C731.713 404.828 731.053 407.972 730.285 411.812ZM756.347 413.36C755.579 413.36 754.979 413.24 754.547 413C754.115 412.736 753.767 412.34 753.503 411.812C752.999 410.876 752.747 409.748 752.747 408.428C752.747 406.124 753.095 403.94 753.791 401.876C754.487 399.788 755.435 398.036 756.635 396.62C757.787 395.276 759.047 394.604 760.415 394.604C761.135 394.604 761.699 394.904 762.107 395.504C762.539 396.08 762.755 396.788 762.755 397.628C762.755 399.092 762.371 400.364 761.603 401.444C760.859 402.524 759.851 403.424 758.579 404.144C757.475 404.792 756.131 405.44 754.547 406.088L754.475 408.68C754.475 410.696 755.087 411.704 756.311 411.704C756.815 411.704 757.295 411.608 757.751 411.416C758.231 411.224 758.747 410.96 759.299 410.624C759.947 410.24 760.403 410.048 760.667 410.048C761.075 410.048 761.279 410.264 761.279 410.696C761.279 411.008 760.979 411.38 760.379 411.812C759.803 412.244 759.119 412.616 758.327 412.928C757.535 413.216 756.875 413.36 756.347 413.36ZM754.835 404.36C756.443 403.712 757.667 403.136 758.507 402.632C759.347 402.128 759.983 401.492 760.415 400.724C760.871 399.956 761.099 398.948 761.099 397.7C761.099 396.764 760.703 396.296 759.911 396.296C759.215 396.296 758.399 396.932 757.463 398.204C756.479 399.476 755.687 401.144 755.087 403.208C754.919 403.784 754.835 404.168 754.835 404.36ZM764.31 410.336C764.31 410.024 764.394 409.808 764.562 409.688C764.73 409.568 764.946 409.484 765.21 409.436C765.426 409.436 765.594 409.508 765.714 409.652C765.858 409.796 766.026 410.024 766.218 410.336C766.41 410.672 766.566 410.912 766.686 411.056C766.83 411.176 767.07 411.236 767.406 411.236C768.174 411.236 768.798 410.996 769.278 410.516C769.782 410.036 770.034 409.472 770.034 408.824C770.034 408.128 769.89 407.396 769.602 406.628C769.314 405.86 768.87 404.9 768.27 403.748C767.07 401.588 766.47 399.872 766.47 398.6C766.47 397.328 766.782 396.308 767.406 395.54C768.054 394.772 768.93 394.388 770.034 394.388C770.802 394.388 771.534 394.604 772.23 395.036C772.926 395.468 773.274 396.008 773.274 396.656C773.274 397.352 772.986 397.7 772.41 397.7C772.242 397.7 772.098 397.652 771.978 397.556C771.882 397.46 771.786 397.352 771.69 397.232C771.594 397.088 771.522 396.992 771.474 396.944C771.042 396.44 770.562 396.188 770.034 396.188C768.858 396.188 768.27 396.872 768.27 398.24C768.27 398.984 768.414 399.74 768.702 400.508C768.99 401.276 769.422 402.248 769.998 403.424C770.55 404.576 770.97 405.536 771.258 406.304C771.546 407.072 771.69 407.804 771.69 408.5C771.69 409.724 771.318 410.756 770.574 411.596C769.83 412.436 768.786 412.94 767.442 413.108C766.602 413.108 765.87 412.82 765.246 412.244C764.622 411.644 764.31 411.008 764.31 410.336ZM776.68 413.36C775.864 413.36 775.456 412.7 775.456 411.38C775.456 411.044 775.516 410.744 775.636 410.48C775.756 410.072 775.864 409.604 775.96 409.076L776.5 406.664L777.22 403.496C777.46 402.32 777.748 401 778.084 399.536C778.132 399.392 778.18 399.152 778.228 398.816C778.468 397.784 778.588 397.184 778.588 397.016V396.656C778.588 396.464 778.504 396.068 778.336 395.468C778.336 395.18 778.432 394.916 778.624 394.676C778.84 394.436 779.092 394.316 779.38 394.316C779.644 394.316 779.872 394.496 780.064 394.856C780.256 395.216 780.352 395.612 780.352 396.044C780.352 396.524 779.8 399.116 778.696 403.82C777.592 408.524 777.04 411.02 777.04 411.308C777.04 411.572 777.16 411.704 777.4 411.704C777.52 411.704 777.736 411.548 778.048 411.236C778.336 410.948 778.576 410.804 778.768 410.804C779.152 410.804 779.344 411.044 779.344 411.524C779.344 411.812 779.176 412.1 778.84 412.388C778.504 412.676 778.12 412.904 777.688 413.072C777.256 413.264 776.92 413.36 776.68 413.36ZM780.316 391.616C779.932 391.616 779.644 391.568 779.452 391.472H779.308C778.612 391.472 778.264 391.064 778.264 390.248C778.264 389.84 778.432 389.468 778.768 389.132C779.128 388.796 779.512 388.628 779.92 388.628C780.328 388.628 780.712 388.772 781.072 389.06C781.48 389.468 781.684 389.864 781.684 390.248C781.684 390.608 781.54 390.932 781.252 391.22C780.988 391.484 780.676 391.616 780.316 391.616ZM784.451 427.76C783.275 427.76 782.303 427.364 781.535 426.572C780.767 425.78 780.383 424.748 780.383 423.476C780.383 422.42 780.647 421.46 781.175 420.596C781.679 419.732 782.279 418.976 782.975 418.328C783.695 417.704 784.631 416.972 785.783 416.132C785.927 416.036 786.059 415.94 786.179 415.844C786.299 415.772 786.395 415.712 786.467 415.664C787.499 414.92 788.543 414.116 789.599 413.252C789.767 412.484 790.007 411.392 790.319 409.976C790.631 408.56 790.883 407.492 791.075 406.772C790.427 408.644 789.635 410.192 788.699 411.416C787.787 412.616 786.863 413.216 785.927 413.216C785.039 413.216 784.343 412.904 783.839 412.28C783.359 411.632 783.119 410.744 783.119 409.616C783.119 407.504 783.503 405.308 784.271 403.028C785.063 400.748 786.131 398.792 787.475 397.16C788.795 395.504 790.283 394.676 791.939 394.676C792.707 394.676 793.439 394.868 794.135 395.252C794.279 395.18 794.435 395.144 794.603 395.144C794.987 395.144 795.179 395.336 795.179 395.72C795.179 396.056 795.083 396.536 794.891 397.16C794.699 397.784 794.579 398.168 794.531 398.312C794.219 399.44 793.703 401.588 792.983 404.756L791.399 412.064C791.639 411.896 792.155 411.476 792.947 410.804C793.043 410.732 793.223 410.588 793.487 410.372C793.751 410.132 793.967 409.964 794.135 409.868C794.327 409.748 794.483 409.688 794.603 409.688C795.035 409.688 795.251 409.892 795.251 410.3C795.251 410.588 795.155 410.828 794.963 411.02C793.715 411.98 792.455 412.916 791.183 413.828L790.139 419.12C789.443 422.696 788.543 425.096 787.439 426.32C786.575 427.28 785.579 427.76 784.451 427.76ZM786.071 411.56C786.599 411.56 787.187 411.212 787.835 410.516C788.483 409.82 789.107 408.884 789.707 407.708C790.331 406.508 790.847 405.224 791.255 403.856L792.659 398.96L793.307 396.584C792.971 396.272 792.503 396.116 791.903 396.116C790.871 396.116 789.791 396.8 788.663 398.168C787.559 399.536 786.623 401.264 785.855 403.352C785.111 405.416 784.739 407.3 784.739 409.004C784.739 410.708 785.183 411.56 786.071 411.56ZM784.379 425.96C785.219 425.96 785.915 425.624 786.467 424.952C787.019 424.28 787.451 423.392 787.763 422.288C788.099 421.208 788.435 419.792 788.771 418.04L789.311 415.196C788.447 415.916 787.583 416.6 786.719 417.248C785.399 418.232 784.307 419.216 783.443 420.2C782.579 421.208 782.147 422.36 782.147 423.656C782.147 424.424 782.339 425 782.723 425.384C783.131 425.768 783.683 425.96 784.379 425.96ZM806.911 413.216C806.527 413.216 806.251 413.144 806.083 413C805.915 412.856 805.855 412.604 805.903 412.244L807.667 401.732C807.883 400.436 807.991 399.44 807.991 398.744C807.991 397.592 807.667 397.016 807.019 397.016C806.227 397.016 805.135 398.396 803.743 401.156C802.375 403.892 800.959 406.988 799.495 410.444L798.991 411.596C798.559 412.532 798.127 413 797.695 413C797.455 413 797.299 412.952 797.227 412.856C797.179 412.736 797.155 412.496 797.155 412.136C797.155 411.776 797.623 409.004 798.559 403.82C799.519 398.636 800.071 395.912 800.215 395.648C800.359 395.36 800.479 395.18 800.575 395.108C800.695 395.036 800.911 395 801.223 395C801.511 395 801.739 395.108 801.907 395.324C802.099 395.54 802.195 395.756 802.195 395.972C802.195 396.116 802.075 396.584 801.835 397.376C801.115 399.824 800.551 402.2 800.143 404.504L799.783 406.628C800.191 405.764 800.491 405.092 800.683 404.612C801.355 403.052 801.967 401.684 802.519 400.508C803.095 399.332 803.731 398.24 804.427 397.232C805.483 395.72 806.467 394.964 807.379 394.964C808.987 394.964 809.791 396.26 809.791 398.852C809.791 399.404 809.719 400.112 809.575 400.976C809.431 401.84 809.275 402.728 809.107 403.64C808.771 405.392 808.555 406.592 808.459 407.24L808.207 408.896C807.991 410.384 807.799 411.476 807.631 412.172C807.463 412.868 807.223 413.216 806.911 413.216Z" fill="white"/>
</g>
<defs>
<linearGradient id="paint0_linear_63_3" x1="1309.5" y1="757" x2="45.4999" y2="40.5" gradientUnits="userSpaceOnUse">
<stop stop-color="#DDD6F3"/>
<stop offset="1" stop-color="#FAACA8"/>
<stop offset="1" stop-color="#FAACA8"/>
</linearGradient>
<clipPath id="clip0_63_3">
<rect width="1440" height="800" fill="white"/>
</clipPath>
</defs>
</svg>
