<svg width="1440" height="800" viewBox="0 0 1440 800" fill="none" xmlns="http://www.w3.org/2000/svg">
<g clip-path="url(#clip0_63_3)">
<rect width="1440" height="800" fill="white"/>
<rect width="1440" height="800" fill="url(#paint0_linear_63_3)"/>
<path d="M667.816 419.752C667.56 419.752 667.416 419.584 667.384 419.248C667.88 416.192 668.304 413.928 668.656 412.456C669.024 411 669.504 409.312 670.096 407.392C668.64 408.704 666.736 409.36 664.384 409.36C663.232 409.36 662.248 409.024 661.432 408.352C660.632 407.68 660.024 406.808 659.608 405.736C659.192 404.664 658.984 403.52 658.984 402.304C658.984 400 659.456 397.568 660.4 395.008C661.36 392.448 662.576 390.312 664.048 388.6C665.536 386.888 667.016 386.032 668.488 386.032C669.816 386.032 670.88 386.432 671.68 387.232C672.496 388.016 673.024 389.112 673.264 390.52C673.2 391 673.072 391.24 672.88 391.24C672.72 391.24 672.52 391.064 672.28 390.712C672.056 390.36 671.832 389.928 671.608 389.416C670.984 387.912 669.944 387.16 668.488 387.16C667.048 387.16 665.68 387.984 664.384 389.632C663.088 391.264 662.048 393.248 661.264 395.584C660.48 397.904 660.088 399.976 660.088 401.8C660.088 403.704 660.44 405.264 661.144 406.48C661.848 407.68 662.984 408.28 664.552 408.28C667.32 408.28 669.208 407.512 670.216 405.976C670.472 405.592 670.648 405.232 670.744 404.896C670.84 404.56 670.888 404.208 670.888 403.84C670.808 403.616 670.424 403.152 669.736 402.448C669.048 401.744 668.408 401.184 667.816 400.768C666.792 400.976 665.624 401.168 664.312 401.344C663.992 401.312 663.832 401.168 663.832 400.912C663.832 400.704 663.928 400.52 664.12 400.36C665.16 399.608 666.064 399.232 666.832 399.232C667.296 399.232 667.744 399.352 668.176 399.592C670.128 399.16 672.304 398.56 674.704 397.792C675.088 397.792 675.28 397.928 675.28 398.2C675.28 398.296 675.248 398.416 675.184 398.56C673.12 401.968 671.568 405.64 670.528 409.576C670.192 410.824 669.928 411.904 669.736 412.816C669.544 413.744 669.296 414.968 668.992 416.488L668.488 419.08C668.472 419.256 668.384 419.408 668.224 419.536C668.08 419.68 667.944 419.752 667.816 419.752ZM671.704 403.024C671.96 402.464 672.296 401.76 672.712 400.912C673.144 400.064 673.44 399.504 673.6 399.232C672.16 399.712 670.736 400.12 669.328 400.456C669.696 400.808 670.12 401.248 670.6 401.776C671.08 402.304 671.448 402.72 671.704 403.024ZM678.715 409.192C678.139 409.192 677.699 409.04 677.395 408.736C677.107 408.432 676.963 408.032 676.963 407.536C676.963 407.104 676.987 406.712 677.035 406.36C677.083 405.992 677.171 405.424 677.299 404.656C677.555 403.168 677.883 401.472 678.283 399.568L678.907 396.544C680.283 389.968 681.019 386.52 681.115 386.2C681.195 385.944 681.371 385.816 681.643 385.816C681.979 385.816 682.147 386 682.147 386.368L682.051 386.992C681.971 387.504 681.883 387.984 681.787 388.432C681.691 388.864 681.515 389.704 681.259 390.952C680.827 392.968 680.275 395.56 679.603 398.728C678.947 401.896 678.531 404.008 678.355 405.064C678.147 406.216 678.043 406.936 678.043 407.224C678.043 407.464 678.115 407.68 678.259 407.872C678.403 408.064 678.579 408.16 678.787 408.16C679.011 408.16 679.219 408.12 679.411 408.04C679.619 407.944 679.755 407.88 679.819 407.848L680.227 407.632C680.355 407.568 680.435 407.536 680.467 407.536C680.819 407.536 680.995 407.712 680.995 408.064C680.995 408.416 680.771 408.696 680.323 408.904C679.875 409.096 679.339 409.192 678.715 409.192ZM685.333 409.216C684.501 409.216 683.877 408.888 683.461 408.232C683.061 407.576 682.861 406.792 682.861 405.88C682.861 404.424 683.101 403.016 683.581 401.656C684.077 400.28 684.749 399.144 685.597 398.248C686.413 397.336 687.333 396.88 688.357 396.88C689.829 396.88 690.565 398 690.565 400.24C690.565 401.36 690.381 402.504 690.013 403.672C689.645 404.84 689.165 405.88 688.573 406.792C687.997 407.704 687.397 408.36 686.773 408.76C686.293 409.064 685.813 409.216 685.333 409.216ZM685.525 408.136C686.021 408.136 686.573 407.704 687.181 406.84C687.805 405.976 688.325 404.904 688.741 403.624C689.173 402.344 689.389 401.256 689.389 400.36C689.389 399.432 689.333 398.856 689.221 398.632C689.125 398.392 689.005 398.224 688.861 398.128C688.717 398.032 688.493 397.984 688.189 397.984C687.853 397.984 687.501 398.112 687.133 398.368C686.397 398.832 685.757 399.632 685.213 400.768C684.365 402.464 683.941 404.112 683.941 405.712C683.941 406.8 684.253 407.552 684.877 407.968C685.101 408.08 685.317 408.136 685.525 408.136ZM695.241 409.24C694.537 409.24 693.993 408.928 693.609 408.304C693.241 407.68 693.057 406.904 693.057 405.976C693.057 405.288 693.097 404.616 693.177 403.96C693.257 403.288 693.377 402.496 693.537 401.584L693.633 400.96C693.873 399.456 694.073 398.288 694.233 397.456C694.265 397.248 694.297 397.064 694.329 396.904C694.361 396.744 694.385 396.6 694.401 396.472C694.545 395.72 694.673 395.112 694.785 394.648C694.865 394.168 695.073 393.12 695.409 391.504C695.665 390.368 695.993 388.648 696.393 386.344C696.505 386.088 696.665 385.96 696.873 385.96C697.289 385.96 697.497 386.136 697.497 386.488L697.449 386.656C697.065 389.248 696.617 391.696 696.105 394C695.529 396.576 695.105 398.544 694.833 399.904C695.377 398.928 695.897 398.192 696.393 397.696C696.889 397.184 697.433 396.928 698.025 396.928C698.617 396.928 699.089 397.16 699.441 397.624C699.809 398.072 699.993 398.592 699.993 399.184C699.993 400.416 699.801 401.824 699.417 403.408C699.049 404.976 698.561 406.256 697.953 407.248C697.153 408.576 696.249 409.24 695.241 409.24ZM695.241 408.016C695.817 408.016 696.393 407.536 696.969 406.576C697.737 405.344 698.281 403.752 698.601 401.8C698.681 401.192 698.721 400.616 698.721 400.072C698.721 399.416 698.657 398.928 698.529 398.608C698.417 398.272 698.201 398.104 697.881 398.104C697.545 398.104 697.113 398.392 696.585 398.968C696.073 399.528 695.609 400.232 695.193 401.08C694.777 401.912 694.529 402.696 694.449 403.432C694.337 404.504 694.281 405.352 694.281 405.976C694.281 407.336 694.601 408.016 695.241 408.016ZM709.223 409.048C708.855 409.048 708.511 408.856 708.191 408.472C707.887 408.072 707.735 407.648 707.735 407.2C707.735 406.208 707.999 404.528 708.527 402.16C708.127 403.024 707.607 403.912 706.967 404.824C706.343 405.72 705.727 406.512 705.119 407.2C704.511 407.888 704.063 408.336 703.775 408.544C703.375 408.848 702.935 409 702.455 409C701.543 409 701.087 408.424 701.087 407.272C701.087 406.152 701.511 404.76 702.359 403.096C703.207 401.416 704.215 399.96 705.383 398.728C706.551 397.512 707.495 396.904 708.215 396.904C708.951 396.904 709.367 397.224 709.463 397.864C709.511 398.056 709.535 398.264 709.535 398.488C709.615 398.44 709.703 398.416 709.799 398.416C710.167 398.416 710.351 398.592 710.351 398.944V399.04L710.063 400.096C709.839 400.896 709.607 402.08 709.367 403.648C709.127 405.216 709.007 406.52 709.007 407.56L709.247 407.704C709.631 407.944 709.823 408.184 709.823 408.424C709.823 408.584 709.767 408.728 709.655 408.856C709.543 408.984 709.399 409.048 709.223 409.048ZM702.647 407.752C702.823 407.752 702.967 407.696 703.079 407.584C704.711 406.192 706.159 404.264 707.423 401.8C707.967 400.776 708.303 400.104 708.431 399.784C708.575 399.464 708.647 399.152 708.647 398.848C708.647 398.688 708.607 398.544 708.527 398.416C708.447 398.288 708.343 398.224 708.215 398.224C708.055 398.224 707.847 398.296 707.591 398.44C706.951 398.776 706.191 399.488 705.311 400.576C704.447 401.664 703.735 402.816 703.175 404.032C702.583 405.264 702.287 406.36 702.287 407.32C702.287 407.608 702.407 407.752 702.647 407.752ZM714.316 409.192C713.74 409.192 713.3 409.04 712.996 408.736C712.708 408.432 712.564 408.032 712.564 407.536C712.564 407.104 712.588 406.712 712.636 406.36C712.684 405.992 712.772 405.424 712.9 404.656C713.156 403.168 713.484 401.472 713.884 399.568L714.508 396.544C715.884 389.968 716.62 386.52 716.716 386.2C716.796 385.944 716.972 385.816 717.244 385.816C717.58 385.816 717.748 386 717.748 386.368L717.652 386.992C717.572 387.504 717.484 387.984 717.388 388.432C717.292 388.864 717.116 389.704 716.86 390.952C716.428 392.968 715.876 395.56 715.204 398.728C714.548 401.896 714.132 404.008 713.956 405.064C713.748 406.216 713.644 406.936 713.644 407.224C713.644 407.464 713.716 407.68 713.86 407.872C714.004 408.064 714.18 408.16 714.388 408.16C714.612 408.16 714.82 408.12 715.012 408.04C715.22 407.944 715.356 407.88 715.42 407.848L715.828 407.632C715.956 407.568 716.036 407.536 716.068 407.536C716.42 407.536 716.596 407.712 716.596 408.064C716.596 408.416 716.372 408.696 715.924 408.904C715.476 409.096 714.94 409.192 714.316 409.192ZM725.969 410.32C725.649 410.32 725.489 410.136 725.489 409.768C725.489 409.656 725.505 409.456 725.537 409.168C725.265 409.104 725.041 409.064 724.865 409.048C724.321 408.952 723.921 408.848 723.665 408.736C723.409 408.624 723.281 408.416 723.281 408.112C723.281 408.032 723.329 407.944 723.425 407.848C723.505 407.736 723.585 407.68 723.665 407.68C723.873 407.68 724.105 407.744 724.361 407.872C724.569 407.968 724.761 408.04 724.937 408.088C725.113 408.136 725.361 408.16 725.681 408.16C727.505 399.28 729.241 392.392 730.889 387.496C730.361 387.672 729.881 387.872 729.449 388.096C729.033 388.304 728.793 388.424 728.729 388.456C728.313 388.68 728.065 388.792 727.985 388.792C727.697 388.792 727.553 388.648 727.553 388.36C727.553 388.136 727.657 387.952 727.865 387.808C729.049 387.072 730.209 386.552 731.345 386.248C731.473 386.04 731.641 385.936 731.849 385.936C731.977 385.936 732.065 385.976 732.113 386.056C732.961 385.88 733.729 385.792 734.417 385.792C736.417 385.792 737.953 386.472 739.025 387.832C740.113 389.192 740.657 391.224 740.657 393.928C740.657 398.136 739.769 401.448 737.993 403.864C736.233 406.28 733.945 407.888 731.129 408.688C729.849 409.056 728.361 409.24 726.665 409.24C726.633 409.608 726.561 409.88 726.449 410.056C726.337 410.232 726.177 410.32 725.969 410.32ZM726.857 408.208C729.705 408.208 732.073 407.568 733.961 406.288C735.865 405.008 737.265 403.312 738.161 401.2C739.073 399.088 739.529 396.76 739.529 394.216C739.529 391.736 739.041 389.896 738.065 388.696C737.089 387.48 735.785 386.872 734.153 386.872C733.529 386.872 732.817 386.976 732.017 387.184C730.705 391.312 729.425 396.224 728.177 401.92C727.809 403.552 727.369 405.648 726.857 408.208ZM744.231 409.24C743.719 409.24 743.319 409.16 743.031 409C742.743 408.824 742.511 408.56 742.335 408.208C741.999 407.584 741.831 406.832 741.831 405.952C741.831 404.416 742.063 402.96 742.527 401.584C742.991 400.192 743.623 399.024 744.423 398.08C745.191 397.184 746.031 396.736 746.943 396.736C747.423 396.736 747.799 396.936 748.071 397.336C748.359 397.72 748.503 398.192 748.503 398.752C748.503 399.728 748.247 400.576 747.735 401.296C747.239 402.016 746.567 402.616 745.719 403.096C744.983 403.528 744.087 403.96 743.031 404.392L742.983 406.12C742.983 407.464 743.391 408.136 744.207 408.136C744.543 408.136 744.863 408.072 745.167 407.944C745.487 407.816 745.831 407.64 746.199 407.416C746.631 407.16 746.935 407.032 747.111 407.032C747.383 407.032 747.519 407.176 747.519 407.464C747.519 407.672 747.319 407.92 746.919 408.208C746.535 408.496 746.079 408.744 745.551 408.952C745.023 409.144 744.583 409.24 744.231 409.24ZM743.223 403.24C744.295 402.808 745.111 402.424 745.671 402.088C746.231 401.752 746.655 401.328 746.943 400.816C747.247 400.304 747.399 399.632 747.399 398.8C747.399 398.176 747.135 397.864 746.607 397.864C746.143 397.864 745.599 398.288 744.975 399.136C744.319 399.984 743.791 401.096 743.391 402.472C743.279 402.856 743.223 403.112 743.223 403.24ZM749.54 407.224C749.54 407.016 749.596 406.872 749.708 406.792C749.82 406.712 749.964 406.656 750.14 406.624C750.284 406.624 750.396 406.672 750.476 406.768C750.572 406.864 750.684 407.016 750.812 407.224C750.94 407.448 751.044 407.608 751.124 407.704C751.22 407.784 751.38 407.824 751.604 407.824C752.116 407.824 752.532 407.664 752.852 407.344C753.188 407.024 753.356 406.648 753.356 406.216C753.356 405.752 753.26 405.264 753.068 404.752C752.876 404.24 752.58 403.6 752.18 402.832C751.38 401.392 750.98 400.248 750.98 399.4C750.98 398.552 751.188 397.872 751.604 397.36C752.036 396.848 752.62 396.592 753.356 396.592C753.868 396.592 754.356 396.736 754.82 397.024C755.284 397.312 755.516 397.672 755.516 398.104C755.516 398.568 755.324 398.8 754.94 398.8C754.828 398.8 754.732 398.768 754.652 398.704C754.588 398.64 754.524 398.568 754.46 398.488C754.396 398.392 754.348 398.328 754.316 398.296C754.028 397.96 753.708 397.792 753.356 397.792C752.572 397.792 752.18 398.248 752.18 399.16C752.18 399.656 752.276 400.16 752.468 400.672C752.66 401.184 752.948 401.832 753.332 402.616C753.7 403.384 753.98 404.024 754.172 404.536C754.364 405.048 754.46 405.536 754.46 406C754.46 406.816 754.212 407.504 753.716 408.064C753.22 408.624 752.524 408.96 751.628 409.072C751.068 409.072 750.58 408.88 750.164 408.496C749.748 408.096 749.54 407.672 749.54 407.224ZM757.787 409.24C757.243 409.24 756.971 408.8 756.971 407.92C756.971 407.696 757.011 407.496 757.091 407.32C757.171 407.048 757.243 406.736 757.307 406.384L757.667 404.776L758.147 402.664C758.307 401.88 758.499 401 758.723 400.024C758.755 399.928 758.787 399.768 758.819 399.544C758.979 398.856 759.059 398.456 759.059 398.344V398.104C759.059 397.976 759.003 397.712 758.891 397.312C758.891 397.12 758.955 396.944 759.083 396.784C759.227 396.624 759.395 396.544 759.587 396.544C759.763 396.544 759.915 396.664 760.043 396.904C760.171 397.144 760.235 397.408 760.235 397.696C760.235 398.016 759.867 399.744 759.131 402.88C758.395 406.016 758.027 407.68 758.027 407.872C758.027 408.048 758.107 408.136 758.267 408.136C758.347 408.136 758.491 408.032 758.699 407.824C758.891 407.632 759.051 407.536 759.179 407.536C759.435 407.536 759.563 407.696 759.563 408.016C759.563 408.208 759.451 408.4 759.227 408.592C759.003 408.784 758.747 408.936 758.459 409.048C758.171 409.176 757.947 409.24 757.787 409.24ZM760.211 394.744C759.955 394.744 759.763 394.712 759.635 394.648H759.539C759.075 394.648 758.843 394.376 758.843 393.832C758.843 393.56 758.955 393.312 759.179 393.088C759.419 392.864 759.675 392.752 759.947 392.752C760.219 392.752 760.475 392.848 760.715 393.04C760.987 393.312 761.123 393.576 761.123 393.832C761.123 394.072 761.027 394.288 760.835 394.48C760.659 394.656 760.451 394.744 760.211 394.744ZM762.967 418.84C762.183 418.84 761.535 418.576 761.023 418.048C760.511 417.52 760.255 416.832 760.255 415.984C760.255 415.28 760.431 414.64 760.783 414.064C761.119 413.488 761.519 412.984 761.983 412.552C762.463 412.136 763.087 411.648 763.855 411.088C763.951 411.024 764.039 410.96 764.119 410.896C764.199 410.848 764.263 410.808 764.311 410.776C764.999 410.28 765.695 409.744 766.399 409.168C766.511 408.656 766.671 407.928 766.879 406.984C767.087 406.04 767.255 405.328 767.383 404.848C766.951 406.096 766.423 407.128 765.799 407.944C765.191 408.744 764.575 409.144 763.951 409.144C763.359 409.144 762.895 408.936 762.559 408.52C762.239 408.088 762.079 407.496 762.079 406.744C762.079 405.336 762.335 403.872 762.847 402.352C763.375 400.832 764.087 399.528 764.983 398.44C765.863 397.336 766.855 396.784 767.959 396.784C768.471 396.784 768.959 396.912 769.423 397.168C769.519 397.12 769.623 397.096 769.735 397.096C769.991 397.096 770.119 397.224 770.119 397.48C770.119 397.704 770.055 398.024 769.927 398.44C769.799 398.856 769.719 399.112 769.687 399.208C769.479 399.96 769.135 401.392 768.655 403.504L767.599 408.376C767.759 408.264 768.103 407.984 768.631 407.536C768.695 407.488 768.815 407.392 768.991 407.248C769.167 407.088 769.311 406.976 769.423 406.912C769.551 406.832 769.655 406.792 769.735 406.792C770.023 406.792 770.167 406.928 770.167 407.2C770.167 407.392 770.103 407.552 769.975 407.68C769.143 408.32 768.303 408.944 767.455 409.552L766.759 413.08C766.295 415.464 765.695 417.064 764.959 417.88C764.383 418.52 763.719 418.84 762.967 418.84ZM764.047 408.04C764.399 408.04 764.791 407.808 765.223 407.344C765.655 406.88 766.071 406.256 766.471 405.472C766.887 404.672 767.231 403.816 767.503 402.904L768.439 399.64L768.871 398.056C768.647 397.848 768.335 397.744 767.935 397.744C767.247 397.744 766.527 398.2 765.775 399.112C765.039 400.024 764.415 401.176 763.903 402.568C763.407 403.944 763.159 405.2 763.159 406.336C763.159 407.472 763.455 408.04 764.047 408.04ZM762.919 417.64C763.479 417.64 763.943 417.416 764.311 416.968C764.679 416.52 764.967 415.928 765.175 415.192C765.399 414.472 765.623 413.528 765.847 412.36L766.207 410.464C765.631 410.944 765.055 411.4 764.479 411.832C763.599 412.488 762.871 413.144 762.295 413.8C761.719 414.472 761.431 415.24 761.431 416.104C761.431 416.616 761.559 417 761.815 417.256C762.087 417.512 762.455 417.64 762.919 417.64ZM777.941 409.144C777.685 409.144 777.501 409.096 777.389 409C777.277 408.904 777.237 408.736 777.269 408.496L778.445 401.488C778.589 400.624 778.661 399.96 778.661 399.496C778.661 398.728 778.445 398.344 778.013 398.344C777.485 398.344 776.757 399.264 775.829 401.104C774.917 402.928 773.973 404.992 772.997 407.296L772.661 408.064C772.373 408.688 772.085 409 771.797 409C771.637 409 771.533 408.968 771.485 408.904C771.453 408.824 771.437 408.664 771.437 408.424C771.437 408.184 771.749 406.336 772.373 402.88C773.013 399.424 773.381 397.608 773.477 397.432C773.573 397.24 773.653 397.12 773.717 397.072C773.797 397.024 773.941 397 774.149 397C774.341 397 774.493 397.072 774.605 397.216C774.733 397.36 774.797 397.504 774.797 397.648C774.797 397.744 774.717 398.056 774.557 398.584C774.077 400.216 773.701 401.8 773.429 403.336L773.189 404.752C773.461 404.176 773.661 403.728 773.789 403.408C774.237 402.368 774.645 401.456 775.013 400.672C775.397 399.888 775.821 399.16 776.285 398.488C776.989 397.48 777.645 396.976 778.253 396.976C779.325 396.976 779.861 397.84 779.861 399.568C779.861 399.936 779.813 400.408 779.717 400.984C779.621 401.56 779.517 402.152 779.405 402.76C779.181 403.928 779.037 404.728 778.973 405.16L778.805 406.264C778.661 407.256 778.533 407.984 778.421 408.448C778.309 408.912 778.149 409.144 777.941 409.144Z" fill="white"/>
</g>
<defs>
<linearGradient id="paint0_linear_63_3" x1="1309.5" y1="757" x2="45.4999" y2="40.5" gradientUnits="userSpaceOnUse">
<stop stop-color="#DDD6F3"/>
<stop offset="1" stop-color="#FAACA8"/>
<stop offset="1" stop-color="#FAACA8"/>
</linearGradient>
<clipPath id="clip0_63_3">
<rect width="1440" height="800" fill="white"/>
</clipPath>
</defs>
</svg>
