<svg width="1440" height="800" viewBox="0 0 1440 800" fill="none" xmlns="http://www.w3.org/2000/svg">
<g clip-path="url(#clip0_9_4)">
<path d="M1440 0H0V800H1440V0Z" fill="white"/>
<path d="M0 0H1440V800H0V0Z" fill="url(#paint0_linear_9_4)"/>
<path d="M632.595 411.288C635.727 411.288 639.003 410.136 640.623 408.372V399.012H639.255V406.032C639.255 407.616 638.895 408.336 637.491 409.02C636.087 409.704 634.287 410.136 632.523 410.136C626.079 410.136 622.875 404.988 622.875 399.156C622.875 392.82 626.655 388.104 631.803 388.104C635.439 388.104 638.067 389.94 639.363 393.648L640.515 393.072C639.111 389.112 636.015 386.952 631.839 386.952C625.935 386.952 621.471 392.208 621.471 399.12C621.471 405.564 625.287 411.288 632.595 411.288ZM646.348 411H647.572V387.096C647.428 387.204 647.212 387.24 646.708 387.24H646.348V411ZM659.642 410.172C656.15 410.172 653.486 407.148 653.486 403.368C653.486 399.624 656.15 396.6 659.642 396.6C663.134 396.6 665.798 399.624 665.798 403.368C665.798 407.148 663.134 410.172 659.642 410.172ZM659.642 411.252C663.782 411.252 667.058 407.652 667.058 403.368C667.058 399.12 663.782 395.52 659.642 395.52C655.502 395.52 652.226 399.12 652.226 403.368C652.226 407.652 655.502 411.252 659.642 411.252ZM679.36 411.252C683.428 411.252 686.632 407.58 686.632 403.368C686.632 399.192 683.428 395.52 679.36 395.52C676.408 395.52 674.14 397.428 673.096 400.236V387.096C672.952 387.204 672.736 387.24 672.232 387.24H671.872V411H673.096V406.536C674.14 409.344 676.408 411.252 679.36 411.252ZM679.144 410.172C675.832 410.172 673.06 407.22 673.06 403.368C673.06 399.552 675.832 396.6 679.144 396.6C682.78 396.6 685.372 399.768 685.372 403.368C685.372 407.004 682.78 410.172 679.144 410.172ZM695.054 411.252C697.862 411.252 699.878 409.992 700.634 407.904V411H701.822V400.452C701.822 397.14 700.094 395.52 696.782 395.52C693.974 395.52 691.742 396.636 690.914 398.508L691.814 399.012C692.57 397.428 694.262 396.564 696.638 396.564C699.374 396.564 700.598 397.716 700.598 400.236C700.598 402.216 699.734 402.612 696.674 402.9C692.678 403.26 690.194 404.448 690.194 407.328C690.194 409.776 692.066 411.252 695.054 411.252ZM695.234 410.244C692.822 410.244 691.418 409.128 691.418 407.256C691.418 405.024 693.326 404.16 696.818 403.836C699.05 403.62 700.094 403.296 700.634 402.252V405.384C700.634 408.444 698.438 410.244 695.234 410.244ZM707.872 411H709.096V387.096C708.952 387.204 708.736 387.24 708.232 387.24H707.872V411ZM722.574 411H729.594C736.65 411 740.826 406.068 740.826 399.12C740.826 392.172 736.65 387.24 729.594 387.24H722.574V411ZM729.558 388.356C735.858 388.356 739.422 392.712 739.422 399.12C739.422 405.528 735.858 409.884 729.558 409.884H723.942V388.356H729.558ZM752.282 411.252C755.162 411.252 757.394 409.812 758.618 407.292L757.61 406.752C756.566 409.02 754.766 410.172 752.246 410.172C748.574 410.172 745.982 407.184 745.946 403.548H758.87C758.834 399.084 755.81 395.52 751.85 395.52C747.89 395.52 744.722 399.12 744.722 403.404C744.722 407.724 747.926 411.252 752.282 411.252ZM751.814 396.528C755.126 396.528 757.466 399.48 757.646 402.612H745.946C746.162 399.48 748.502 396.528 751.814 396.528ZM767.876 411.252C771.476 411.252 773.78 409.632 773.78 407.112C773.78 404.916 772.376 403.728 769.496 403.188L767.048 402.72C764.672 402.252 763.952 401.388 763.952 399.768C763.952 397.752 765.644 396.528 768.02 396.528C770.18 396.528 771.872 397.392 772.592 398.832L773.384 398.112C772.592 396.528 770.612 395.52 768.128 395.52C764.996 395.52 762.8 397.212 762.8 399.768C762.8 402 764.204 403.26 766.724 403.728L769.28 404.196C771.944 404.7 772.628 405.6 772.628 407.148C772.628 409.056 770.828 410.244 767.984 410.244C765.536 410.244 763.772 409.344 762.908 408.048L762.116 408.768C763.052 410.316 765.248 411.252 767.876 411.252ZM778.465 411H779.689V395.628C779.509 395.772 779.257 395.772 778.825 395.772H778.465V411ZM779.077 391.344C779.725 391.344 780.157 390.876 780.157 390.264C780.157 389.652 779.725 389.184 779.077 389.184C778.429 389.184 777.997 389.652 777.997 390.264C777.997 390.876 778.429 391.344 779.077 391.344ZM792.259 418.812C796.579 418.812 799.279 415.932 799.279 411.108V395.628C799.099 395.736 798.883 395.772 798.379 395.772H798.055V400.236C796.975 397.428 794.743 395.52 791.791 395.52C787.723 395.52 784.519 399.192 784.519 403.368C784.519 407.58 787.723 411.252 791.791 411.252C794.743 411.252 796.975 409.344 798.055 406.536V411.252C798.055 415.464 795.967 417.768 792.295 417.768C789.631 417.768 788.083 417.012 786.895 415.212L785.995 415.932C787.291 417.912 789.271 418.812 792.259 418.812ZM792.007 410.172C788.371 410.172 785.779 407.004 785.779 403.368C785.779 399.768 788.371 396.6 792.007 396.6C795.319 396.6 798.091 399.552 798.091 403.368C798.091 407.22 795.319 410.172 792.007 410.172ZM805.325 411H806.549V402.18C806.549 398.652 808.997 396.6 812.345 396.6C815.117 396.6 816.413 397.824 816.413 400.848V411H817.637V400.704C817.637 397.176 815.909 395.52 812.597 395.52C809.717 395.52 807.377 396.96 806.549 399.48V395.628C806.405 395.736 806.189 395.772 805.685 395.772H805.325V411Z" fill="white"/>
<g clip-path="url(#clip1_9_4)">
<rect width="1440" height="800" transform="translate(0 3)" fill="white"/>
<rect y="3" width="1440" height="800" fill="url(#paint1_linear_9_4)"/>
<path d="M650.088 428.336C649.747 428.336 649.555 428.112 649.512 427.664C650.173 423.589 650.739 420.571 651.208 418.608C651.699 416.667 652.339 414.416 653.128 411.856C651.187 413.605 648.648 414.48 645.512 414.48C643.976 414.48 642.664 414.032 641.576 413.136C640.509 412.24 639.699 411.077 639.144 409.648C638.589 408.219 638.312 406.693 638.312 405.072C638.312 402 638.941 398.757 640.2 395.344C641.48 391.931 643.101 389.083 645.064 386.8C647.048 384.517 649.021 383.376 650.984 383.376C652.755 383.376 654.173 383.909 655.24 384.976C656.328 386.021 657.032 387.483 657.352 389.36C657.267 390 657.096 390.32 656.84 390.32C656.627 390.32 656.36 390.085 656.04 389.616C655.741 389.147 655.443 388.571 655.144 387.888C654.312 385.883 652.925 384.88 650.984 384.88C649.064 384.88 647.24 385.979 645.512 388.176C643.784 390.352 642.397 392.997 641.352 396.112C640.307 399.205 639.784 401.968 639.784 404.4C639.784 406.939 640.253 409.019 641.192 410.64C642.131 412.24 643.645 413.04 645.736 413.04C649.427 413.04 651.944 412.016 653.288 409.968C653.629 409.456 653.864 408.976 653.992 408.528C654.12 408.08 654.184 407.611 654.184 407.12C654.077 406.821 653.565 406.203 652.648 405.264C651.731 404.325 650.877 403.579 650.088 403.024C648.723 403.301 647.165 403.557 645.416 403.792C644.989 403.749 644.776 403.557 644.776 403.216C644.776 402.939 644.904 402.693 645.16 402.48C646.547 401.477 647.752 400.976 648.776 400.976C649.395 400.976 649.992 401.136 650.568 401.456C653.171 400.88 656.072 400.08 659.272 399.056C659.784 399.056 660.04 399.237 660.04 399.6C660.04 399.728 659.997 399.888 659.912 400.08C657.16 404.624 655.091 409.52 653.704 414.768C653.256 416.432 652.904 417.872 652.648 419.088C652.392 420.325 652.061 421.957 651.656 423.984L650.984 427.44C650.963 427.675 650.845 427.877 650.632 428.048C650.44 428.24 650.259 428.336 650.088 428.336ZM655.272 406.032C655.613 405.285 656.061 404.347 656.616 403.216C657.192 402.085 657.587 401.339 657.8 400.976C655.88 401.616 653.981 402.16 652.104 402.608C652.595 403.077 653.16 403.664 653.8 404.368C654.44 405.072 654.931 405.627 655.272 406.032ZM664.62 414.256C663.852 414.256 663.265 414.053 662.86 413.648C662.476 413.243 662.284 412.709 662.284 412.048C662.284 411.472 662.316 410.949 662.38 410.48C662.444 409.989 662.561 409.232 662.732 408.208C663.073 406.224 663.51 403.963 664.044 401.424L664.876 397.392C666.71 388.624 667.692 384.027 667.82 383.6C667.926 383.259 668.161 383.088 668.524 383.088C668.972 383.088 669.196 383.333 669.196 383.824L669.068 384.656C668.961 385.339 668.844 385.979 668.716 386.576C668.588 387.152 668.353 388.272 668.012 389.936C667.436 392.624 666.7 396.08 665.804 400.304C664.929 404.528 664.374 407.344 664.14 408.752C663.862 410.288 663.724 411.248 663.724 411.632C663.724 411.952 663.82 412.24 664.012 412.496C664.204 412.752 664.438 412.88 664.716 412.88C665.014 412.88 665.292 412.827 665.548 412.72C665.825 412.592 666.006 412.507 666.092 412.464L666.636 412.176C666.806 412.091 666.913 412.048 666.956 412.048C667.425 412.048 667.66 412.283 667.66 412.752C667.66 413.221 667.361 413.595 666.764 413.872C666.166 414.128 665.452 414.256 664.62 414.256ZM673.444 414.288C672.334 414.288 671.502 413.851 670.948 412.976C670.414 412.101 670.148 411.056 670.148 409.84C670.148 407.899 670.468 406.021 671.108 404.208C671.769 402.373 672.665 400.859 673.796 399.664C674.884 398.448 676.11 397.84 677.476 397.84C679.438 397.84 680.42 399.333 680.42 402.32C680.42 403.813 680.174 405.339 679.684 406.896C679.193 408.453 678.553 409.84 677.764 411.056C676.996 412.272 676.196 413.147 675.364 413.68C674.724 414.085 674.084 414.288 673.444 414.288ZM673.7 412.848C674.361 412.848 675.097 412.272 675.908 411.12C676.74 409.968 677.433 408.539 677.988 406.832C678.564 405.125 678.852 403.675 678.852 402.48C678.852 401.243 678.777 400.475 678.628 400.176C678.5 399.856 678.34 399.632 678.148 399.504C677.956 399.376 677.657 399.312 677.252 399.312C676.804 399.312 676.334 399.483 675.844 399.824C674.862 400.443 674.009 401.509 673.284 403.024C672.153 405.285 671.588 407.483 671.588 409.616C671.588 411.067 672.004 412.069 672.836 412.624C673.134 412.773 673.422 412.848 673.7 412.848ZM686.655 414.32C685.716 414.32 684.991 413.904 684.479 413.072C683.988 412.24 683.743 411.205 683.743 409.968C683.743 409.051 683.796 408.155 683.903 407.28C684.01 406.384 684.17 405.328 684.383 404.112L684.511 403.28C684.831 401.275 685.098 399.717 685.311 398.608C685.354 398.331 685.396 398.085 685.439 397.872C685.482 397.659 685.514 397.467 685.535 397.296C685.727 396.293 685.898 395.483 686.047 394.864C686.154 394.224 686.431 392.827 686.879 390.672C687.22 389.157 687.658 386.864 688.191 383.792C688.34 383.451 688.554 383.28 688.831 383.28C689.386 383.28 689.663 383.515 689.663 383.984L689.599 384.208C689.087 387.664 688.49 390.928 687.807 394C687.039 397.435 686.474 400.059 686.111 401.872C686.836 400.571 687.53 399.589 688.191 398.928C688.852 398.245 689.578 397.904 690.367 397.904C691.156 397.904 691.786 398.213 692.255 398.832C692.746 399.429 692.991 400.123 692.991 400.912C692.991 402.555 692.735 404.432 692.223 406.544C691.732 408.635 691.082 410.341 690.271 411.664C689.204 413.435 687.999 414.32 686.655 414.32ZM686.655 412.688C687.423 412.688 688.191 412.048 688.959 410.768C689.983 409.125 690.708 407.003 691.135 404.4C691.242 403.589 691.295 402.821 691.295 402.096C691.295 401.221 691.21 400.571 691.039 400.144C690.89 399.696 690.602 399.472 690.175 399.472C689.727 399.472 689.151 399.856 688.447 400.624C687.764 401.371 687.146 402.309 686.591 403.44C686.036 404.549 685.706 405.595 685.599 406.576C685.45 408.005 685.375 409.136 685.375 409.968C685.375 411.781 685.802 412.688 686.655 412.688ZM705.298 414.064C704.807 414.064 704.348 413.808 703.922 413.296C703.516 412.763 703.314 412.197 703.314 411.6C703.314 410.277 703.666 408.037 704.37 404.88C703.836 406.032 703.143 407.216 702.29 408.432C701.458 409.627 700.636 410.683 699.826 411.6C699.015 412.517 698.418 413.115 698.034 413.392C697.5 413.797 696.914 414 696.274 414C695.058 414 694.45 413.232 694.45 411.696C694.45 410.203 695.015 408.347 696.146 406.128C697.276 403.888 698.62 401.947 700.178 400.304C701.735 398.683 702.994 397.872 703.954 397.872C704.935 397.872 705.49 398.299 705.618 399.152C705.682 399.408 705.714 399.685 705.714 399.984C705.82 399.92 705.938 399.888 706.066 399.888C706.556 399.888 706.802 400.123 706.802 400.592V400.72L706.418 402.128C706.119 403.195 705.81 404.773 705.49 406.864C705.17 408.955 705.01 410.693 705.01 412.08L705.33 412.272C705.842 412.592 706.098 412.912 706.098 413.232C706.098 413.445 706.023 413.637 705.874 413.808C705.724 413.979 705.532 414.064 705.298 414.064ZM696.53 412.336C696.764 412.336 696.956 412.261 697.106 412.112C699.282 410.256 701.212 407.685 702.898 404.4C703.623 403.035 704.071 402.139 704.242 401.712C704.434 401.285 704.53 400.869 704.53 400.464C704.53 400.251 704.476 400.059 704.37 399.888C704.263 399.717 704.124 399.632 703.954 399.632C703.74 399.632 703.463 399.728 703.122 399.92C702.268 400.368 701.255 401.317 700.082 402.768C698.93 404.219 697.98 405.755 697.234 407.376C696.444 409.019 696.049 410.48 696.049 411.76C696.049 412.144 696.209 412.336 696.53 412.336ZM712.089 414.256C711.321 414.256 710.734 414.053 710.329 413.648C709.945 413.243 709.753 412.709 709.753 412.048C709.753 411.472 709.785 410.949 709.849 410.48C709.913 409.989 710.03 409.232 710.201 408.208C710.542 406.224 710.979 403.963 711.513 401.424L712.345 397.392C714.179 388.624 715.161 384.027 715.289 383.6C715.395 383.259 715.63 383.088 715.993 383.088C716.441 383.088 716.665 383.333 716.665 383.824L716.536 384.656C716.43 385.339 716.313 385.979 716.185 386.576C716.057 387.152 715.822 388.272 715.481 389.936C714.905 392.624 714.169 396.08 713.273 400.304C712.398 404.528 711.843 407.344 711.609 408.752C711.331 410.288 711.193 411.248 711.193 411.632C711.193 411.952 711.289 412.24 711.481 412.496C711.673 412.752 711.907 412.88 712.185 412.88C712.483 412.88 712.761 412.827 713.016 412.72C713.294 412.592 713.475 412.507 713.561 412.464L714.105 412.176C714.275 412.091 714.382 412.048 714.425 412.048C714.894 412.048 715.129 412.283 715.129 412.752C715.129 413.221 714.83 413.595 714.233 413.872C713.635 414.128 712.921 414.256 712.089 414.256ZM727.625 415.76C727.198 415.76 726.985 415.515 726.985 415.024C726.985 414.875 727.006 414.608 727.049 414.224C726.686 414.139 726.387 414.085 726.153 414.064C725.427 413.936 724.894 413.797 724.553 413.648C724.211 413.499 724.041 413.221 724.041 412.816C724.041 412.709 724.105 412.592 724.233 412.464C724.339 412.315 724.446 412.24 724.553 412.24C724.83 412.24 725.139 412.325 725.481 412.496C725.758 412.624 726.014 412.72 726.249 412.784C726.483 412.848 726.814 412.88 727.241 412.88C729.673 401.04 731.987 391.856 734.185 385.328C733.481 385.563 732.841 385.829 732.265 386.128C731.71 386.405 731.39 386.565 731.305 386.608C730.75 386.907 730.419 387.056 730.313 387.056C729.929 387.056 729.737 386.864 729.737 386.48C729.737 386.181 729.875 385.936 730.153 385.744C731.731 384.763 733.278 384.069 734.793 383.664C734.963 383.387 735.187 383.248 735.465 383.248C735.635 383.248 735.753 383.301 735.817 383.408C736.947 383.173 737.971 383.056 738.889 383.056C741.555 383.056 743.603 383.963 745.033 385.776C746.483 387.589 747.209 390.299 747.209 393.904C747.209 399.515 746.025 403.931 743.657 407.152C741.31 410.373 738.259 412.517 734.505 413.584C732.798 414.075 730.814 414.32 728.553 414.32C728.51 414.811 728.414 415.173 728.265 415.408C728.115 415.643 727.902 415.76 727.625 415.76ZM728.809 412.944C732.606 412.944 735.763 412.091 738.281 410.384C740.819 408.677 742.686 406.416 743.881 403.6C745.097 400.784 745.705 397.68 745.705 394.288C745.705 390.981 745.054 388.528 743.753 386.928C742.451 385.307 740.713 384.496 738.537 384.496C737.705 384.496 736.755 384.635 735.689 384.912C733.939 390.416 732.233 396.965 730.569 404.56C730.078 406.736 729.491 409.531 728.809 412.944ZM751.975 414.32C751.292 414.32 750.759 414.213 750.375 414C749.991 413.765 749.681 413.413 749.447 412.944C748.999 412.112 748.775 411.109 748.775 409.936C748.775 407.888 749.084 405.947 749.703 404.112C750.321 402.256 751.164 400.699 752.231 399.44C753.255 398.245 754.375 397.648 755.591 397.648C756.231 397.648 756.732 397.915 757.095 398.448C757.479 398.96 757.671 399.589 757.671 400.336C757.671 401.637 757.329 402.768 756.647 403.728C755.985 404.688 755.089 405.488 753.959 406.128C752.977 406.704 751.783 407.28 750.375 407.856L750.311 410.16C750.311 411.952 750.855 412.848 751.943 412.848C752.391 412.848 752.817 412.763 753.223 412.592C753.649 412.421 754.108 412.187 754.599 411.888C755.175 411.547 755.58 411.376 755.815 411.376C756.177 411.376 756.359 411.568 756.359 411.952C756.359 412.229 756.092 412.56 755.559 412.944C755.047 413.328 754.439 413.659 753.735 413.936C753.031 414.192 752.444 414.32 751.975 414.32ZM750.631 406.32C752.06 405.744 753.148 405.232 753.895 404.784C754.641 404.336 755.207 403.771 755.591 403.088C755.996 402.405 756.199 401.509 756.199 400.4C756.199 399.568 755.847 399.152 755.143 399.152C754.524 399.152 753.799 399.717 752.967 400.848C752.092 401.979 751.388 403.461 750.855 405.296C750.705 405.808 750.631 406.149 750.631 406.32ZM759.054 411.632C759.054 411.355 759.128 411.163 759.278 411.056C759.427 410.949 759.619 410.875 759.854 410.832C760.046 410.832 760.195 410.896 760.302 411.024C760.43 411.152 760.579 411.355 760.75 411.632C760.92 411.931 761.059 412.144 761.166 412.272C761.294 412.379 761.507 412.432 761.806 412.432C762.488 412.432 763.043 412.219 763.47 411.792C763.918 411.365 764.142 410.864 764.142 410.288C764.142 409.669 764.014 409.019 763.758 408.336C763.502 407.653 763.107 406.8 762.574 405.776C761.507 403.856 760.974 402.331 760.974 401.2C760.974 400.069 761.251 399.163 761.806 398.48C762.382 397.797 763.16 397.456 764.142 397.456C764.824 397.456 765.475 397.648 766.094 398.032C766.712 398.416 767.022 398.896 767.022 399.472C767.022 400.091 766.766 400.4 766.254 400.4C766.104 400.4 765.976 400.357 765.87 400.272C765.784 400.187 765.699 400.091 765.614 399.984C765.528 399.856 765.464 399.771 765.422 399.728C765.038 399.28 764.611 399.056 764.142 399.056C763.096 399.056 762.574 399.664 762.574 400.88C762.574 401.541 762.702 402.213 762.958 402.896C763.214 403.579 763.598 404.443 764.11 405.488C764.6 406.512 764.974 407.365 765.23 408.048C765.486 408.731 765.614 409.381 765.614 410C765.614 411.088 765.283 412.005 764.622 412.752C763.96 413.499 763.032 413.947 761.838 414.096C761.091 414.096 760.44 413.84 759.886 413.328C759.331 412.795 759.054 412.229 759.054 411.632ZM770.049 414.32C769.323 414.32 768.961 413.733 768.961 412.56C768.961 412.261 769.014 411.995 769.121 411.76C769.227 411.397 769.323 410.981 769.409 410.512L769.889 408.368L770.529 405.552C770.742 404.507 770.998 403.333 771.297 402.032C771.339 401.904 771.382 401.691 771.425 401.392C771.638 400.475 771.745 399.941 771.745 399.792V399.472C771.745 399.301 771.67 398.949 771.521 398.416C771.521 398.16 771.606 397.925 771.777 397.712C771.969 397.499 772.193 397.392 772.449 397.392C772.683 397.392 772.886 397.552 773.057 397.872C773.227 398.192 773.313 398.544 773.313 398.928C773.313 399.355 772.822 401.659 771.841 405.84C770.859 410.021 770.369 412.24 770.369 412.496C770.369 412.731 770.475 412.848 770.689 412.848C770.795 412.848 770.987 412.709 771.265 412.432C771.521 412.176 771.734 412.048 771.905 412.048C772.246 412.048 772.417 412.261 772.417 412.688C772.417 412.944 772.267 413.2 771.969 413.456C771.67 413.712 771.329 413.915 770.945 414.064C770.561 414.235 770.262 414.32 770.049 414.32ZM773.281 394.992C772.939 394.992 772.683 394.949 772.513 394.864H772.385C771.766 394.864 771.457 394.501 771.457 393.776C771.457 393.413 771.606 393.083 771.905 392.784C772.225 392.485 772.566 392.336 772.929 392.336C773.291 392.336 773.633 392.464 773.953 392.72C774.315 393.083 774.497 393.435 774.497 393.776C774.497 394.096 774.369 394.384 774.113 394.64C773.878 394.875 773.601 394.992 773.281 394.992ZM776.957 427.12C775.911 427.12 775.047 426.768 774.364 426.064C773.682 425.36 773.34 424.443 773.34 423.312C773.34 422.373 773.575 421.52 774.044 420.752C774.492 419.984 775.026 419.312 775.645 418.736C776.285 418.181 777.117 417.531 778.141 416.784C778.269 416.699 778.386 416.613 778.493 416.528C778.599 416.464 778.685 416.411 778.749 416.368C779.666 415.707 780.594 414.992 781.533 414.224C781.682 413.541 781.895 412.571 782.173 411.312C782.45 410.053 782.674 409.104 782.845 408.464C782.269 410.128 781.565 411.504 780.733 412.592C779.922 413.659 779.101 414.192 778.269 414.192C777.479 414.192 776.861 413.915 776.413 413.36C775.986 412.784 775.773 411.995 775.773 410.992C775.773 409.115 776.114 407.163 776.797 405.136C777.501 403.109 778.45 401.371 779.645 399.92C780.818 398.448 782.141 397.712 783.613 397.712C784.295 397.712 784.946 397.883 785.565 398.224C785.693 398.16 785.831 398.128 785.981 398.128C786.322 398.128 786.493 398.299 786.493 398.64C786.493 398.939 786.407 399.365 786.237 399.92C786.066 400.475 785.959 400.816 785.917 400.944C785.639 401.947 785.181 403.856 784.541 406.672L783.133 413.168C783.346 413.019 783.805 412.645 784.509 412.048C784.594 411.984 784.754 411.856 784.989 411.664C785.223 411.451 785.415 411.301 785.565 411.216C785.735 411.109 785.874 411.056 785.981 411.056C786.365 411.056 786.557 411.237 786.557 411.6C786.557 411.856 786.471 412.069 786.301 412.24C785.191 413.093 784.071 413.925 782.941 414.736L782.013 419.44C781.394 422.619 780.594 424.752 779.613 425.84C778.845 426.693 777.959 427.12 776.957 427.12ZM778.397 412.72C778.866 412.72 779.389 412.411 779.965 411.792C780.541 411.173 781.095 410.341 781.629 409.296C782.183 408.229 782.642 407.088 783.005 405.872L784.253 401.52L784.829 399.408C784.53 399.131 784.114 398.992 783.581 398.992C782.663 398.992 781.703 399.6 780.701 400.816C779.719 402.032 778.887 403.568 778.205 405.424C777.543 407.259 777.213 408.933 777.213 410.448C777.213 411.963 777.607 412.72 778.397 412.72ZM776.893 425.52C777.639 425.52 778.258 425.221 778.749 424.624C779.239 424.027 779.623 423.237 779.901 422.256C780.199 421.296 780.498 420.037 780.797 418.48L781.277 415.952C780.509 416.592 779.741 417.2 778.973 417.776C777.799 418.651 776.829 419.525 776.061 420.4C775.293 421.296 774.909 422.32 774.909 423.472C774.909 424.155 775.079 424.667 775.421 425.008C775.783 425.349 776.274 425.52 776.893 425.52ZM796.921 414.192C796.579 414.192 796.334 414.128 796.185 414C796.035 413.872 795.982 413.648 796.025 413.328L797.593 403.984C797.785 402.832 797.881 401.947 797.881 401.328C797.881 400.304 797.593 399.792 797.017 399.792C796.313 399.792 795.342 401.019 794.105 403.472C792.889 405.904 791.63 408.656 790.329 411.728L789.881 412.752C789.497 413.584 789.113 414 788.729 414C788.515 414 788.377 413.957 788.313 413.872C788.27 413.765 788.249 413.552 788.249 413.232C788.249 412.912 788.665 410.448 789.497 405.84C790.35 401.232 790.841 398.811 790.969 398.576C791.097 398.32 791.203 398.16 791.289 398.096C791.395 398.032 791.587 398 791.865 398C792.121 398 792.323 398.096 792.473 398.288C792.643 398.48 792.729 398.672 792.729 398.864C792.729 398.992 792.622 399.408 792.409 400.112C791.769 402.288 791.267 404.4 790.905 406.448L790.585 408.336C790.947 407.568 791.214 406.971 791.385 406.544C791.982 405.157 792.526 403.941 793.017 402.896C793.529 401.851 794.094 400.88 794.713 399.984C795.651 398.64 796.526 397.968 797.337 397.968C798.766 397.968 799.481 399.12 799.481 401.424C799.481 401.915 799.417 402.544 799.289 403.312C799.161 404.08 799.022 404.869 798.873 405.68C798.574 407.237 798.382 408.304 798.297 408.88L798.073 410.352C797.881 411.675 797.71 412.645 797.561 413.264C797.411 413.883 797.198 414.192 796.921 414.192Z" fill="white"/>
</g>
</g>
<defs>
<linearGradient id="paint0_linear_9_4" x1="0" y1="400" x2="1440" y2="400" gradientUnits="userSpaceOnUse">
<stop stop-color="#5271C4"/>
<stop offset="0.48" stop-color="#B19FFF"/>
<stop offset="1" stop-color="#ECA1FE"/>
</linearGradient>
<linearGradient id="paint1_linear_9_4" x1="1309.5" y1="760" x2="45.4999" y2="43.5" gradientUnits="userSpaceOnUse">
<stop stop-color="#DDD6F3"/>
<stop offset="1" stop-color="#FAACA8"/>
<stop offset="1" stop-color="#FAACA8"/>
</linearGradient>
<clipPath id="clip0_9_4">
<rect width="1440" height="800" fill="white"/>
</clipPath>
<clipPath id="clip1_9_4">
<rect width="1440" height="800" fill="white" transform="translate(0 3)"/>
</clipPath>
</defs>
</svg>
